<svg width="3143" height="1761" viewBox="0 0 3143 1761" fill="none" xmlns="http://www.w3.org/2000/svg" overflow="visible">
<defs>
  <style>
    #star{animation:burnt-led 9s infinite;filter:url(#led-glow)}
    @keyframes burnt-led{
      0%,100%{opacity:1}
      /* longa estabilidade — fica ligado por um tempo */
      18%{opacity:1}
      /* primeira falha rápida */
      18.5%{opacity:.05}19%{opacity:1}
      /* fica estável de novo */
      27%{opacity:1}
      /* piscada dupla */
      27.4%{opacity:0}27.7%{opacity:.9}28%{opacity:0}28.4%{opacity:1}
      /* pausa longa */
      55%{opacity:1}
      /* crise de led queimado — várias piscadas erráticas */
      55.3%{opacity:.08}55.6%{opacity:.7}55.9%{opacity:0}
      56.2%{opacity:.9}56.4%{opacity:.2}56.7%{opacity:1}
      57%{opacity:0}57.3%{opacity:1}
      /* volta ao normal por um tempo */
      74%{opacity:1}
      /* piscada isolada lenta */
      74.6%{opacity:.04}75.2%{opacity:.85}75.5%{opacity:1}
      /* fim estável */
    }
  </style>
  <filter id="led-glow" x="-300%" y="-300%" width="700%" height="700%" color-interpolation-filters="sRGB">
    <feGaussianBlur in="SourceGraphic" stdDeviation="25" result="blur1"/>
    <feGaussianBlur in="SourceGraphic" stdDeviation="70" result="blur2"/>
    <feGaussianBlur in="SourceGraphic" stdDeviation="160" result="blur3"/>
    <feComponentTransfer in="blur3" result="ambient">
      <feFuncA type="linear" slope="0.18"/>
    </feComponentTransfer>
    <feComponentTransfer in="blur2" result="mid">
      <feFuncA type="linear" slope="0.38"/>
    </feComponentTransfer>
    <feComponentTransfer in="blur1" result="near">
      <feFuncA type="linear" slope="0.65"/>
    </feComponentTransfer>
    <feMerge>
      <feMergeNode in="ambient"/>
      <feMergeNode in="mid"/>
      <feMergeNode in="near"/>
      <feMergeNode in="SourceGraphic"/>
    </feMerge>
  </filter>
  <linearGradient id="text-shimmer" gradientUnits="userSpaceOnUse" x1="-3143" y1="900" x2="0" y2="900">
    <stop offset="0%"   stop-color="white"/>
    <stop offset="40%"  stop-color="white"/>
    <stop offset="47%"  stop-color="#c8d8ff"/>
    <stop offset="50%"  stop-color="#aac4ff" stop-opacity="1"/>
    <stop offset="51%"  stop-color="white"   stop-opacity="1"/>
    <stop offset="52%"  stop-color="#e8f0ff" stop-opacity="0.9"/>
    <stop offset="54%"  stop-color="white"/>
    <stop offset="100%" stop-color="white"/>
    <animate attributeName="x1" values="-3143;-3143;3143;3143" keyTimes="0;0.04;0.22;1" dur="24s" repeatCount="indefinite"/>
    <animate attributeName="x2" values="0;0;6286;6286"         keyTimes="0;0.04;0.22;1" dur="24s" repeatCount="indefinite"/>
  </linearGradient>
</defs>
<path id="star" fill-rule="evenodd" clip-rule="evenodd" d="M1623.02 3.47914C1621.8 5.39234 1620.2 8.15114 1619.48 9.60906C1618.75 11.067 1617.15 13.957 1615.91 16.0312C1614.67 18.1061 1612.31 22.2234 1610.67 25.1824C1609.03 28.1413 1606.71 32.246 1605.5 34.305C1604.3 36.3633 1602.37 39.8498 1601.21 42.0526C1600.06 44.2554 1598.13 47.6086 1596.94 49.5046C1595.75 51.4005 1594.77 53.1023 1594.77 53.2859C1594.77 53.4695 1593.83 55.1984 1592.68 57.1282C1591.53 59.058 1589.41 62.8731 1587.96 65.6067C1586.52 68.3403 1584.97 71.0242 1584.51 71.571C1584.06 72.1177 1582.5 74.8016 1581.05 77.5352C1577.04 85.0627 1572.7 92.801 1570.82 95.7593C1569.89 97.2172 1568.59 99.6029 1567.92 101.061C1567.26 102.519 1566.3 104.195 1565.8 104.787C1565.3 105.379 1563.38 108.659 1561.54 112.077C1554.87 124.426 1552.97 127.837 1545.69 140.491C1544.33 142.86 1542.41 146.29 1541.42 148.112C1540.43 149.935 1539.39 151.724 1539.11 152.088C1538.82 152.453 1537.56 154.689 1536.31 157.058C1535.06 159.428 1533.22 162.708 1532.21 164.348C1531.21 165.988 1528.79 170.163 1526.85 173.626L1523.31 179.921L1502.54 180.302C1491.12 180.511 1443.25 180.672 1396.16 180.659C1349.06 180.646 1310.32 180.849 1310.06 181.109C1309.58 181.588 1312.23 187.841 1313.46 189.15C1313.83 189.542 1315.15 191.8 1316.38 194.169C1317.62 196.538 1319.13 199.222 1319.75 200.134C1320.37 201.045 1321.98 203.878 1323.35 206.429C1324.71 208.981 1326.18 211.515 1326.62 212.062C1327.06 212.609 1328.12 214.398 1328.98 216.038C1329.84 217.678 1331.79 221.108 1333.32 223.659C1338.8 232.838 1340.82 236.314 1342.94 240.227C1344.13 242.413 1345.48 244.65 1345.94 245.197C1346.4 245.743 1347.59 247.831 1348.59 249.836C1349.59 251.84 1350.92 254.226 1351.56 255.137C1352.19 256.048 1353.84 258.881 1355.21 261.433C1356.59 263.984 1358.04 266.477 1358.42 266.972C1359.35 268.146 1364.81 277.57 1367.51 282.639C1368.68 284.826 1370.42 287.808 1371.39 289.266C1372.35 290.724 1374 293.557 1375.04 295.562C1376.08 297.566 1377.3 299.654 1377.74 300.2C1378.18 300.747 1379.53 303.133 1380.75 305.502C1381.96 307.871 1383.59 310.704 1384.37 311.798C1385.15 312.891 1386.84 315.724 1388.12 318.093C1390.54 322.559 1392.86 326.55 1397.95 334.969C1399.59 337.683 1402.27 342.317 1403.91 345.268C1405.55 348.219 1407.85 352.184 1409.01 354.079C1410.18 355.973 1412.21 359.578 1413.54 362.091L1415.95 366.658L1414.42 369.712C1413.58 371.391 1411.64 374.853 1410.12 377.404C1408.6 379.956 1405.56 385.174 1403.36 389.001C1401.17 392.828 1398.64 397.152 1397.73 398.61C1396.83 400.068 1395.12 403.027 1393.94 405.184C1392.76 407.342 1391.16 410.075 1390.4 411.257C1389.63 412.438 1387.21 416.582 1385.03 420.464C1382.84 424.346 1379.63 429.909 1377.9 432.826C1376.17 435.743 1374.75 438.251 1374.75 438.399C1374.75 438.546 1373.46 440.838 1371.87 443.49C1368.65 448.876 1362.56 459.333 1359.99 463.886C1358.41 466.677 1356.5 469.999 1348.78 483.354C1347.07 486.315 1344.57 490.824 1343.23 493.376C1341.89 495.927 1340.27 498.76 1339.63 499.671C1338.99 500.582 1337.42 503.266 1336.15 505.635C1334.88 508.005 1332.83 511.64 1331.6 513.714C1330.37 515.789 1328.02 519.907 1326.38 522.866C1324.74 525.824 1322.39 529.942 1321.17 532.017C1319.95 534.091 1317.81 537.876 1316.43 540.427C1315.04 542.978 1313.24 546.28 1312.41 547.764C1311.55 549.299 1311.09 550.94 1311.33 551.574C1311.73 552.609 1319.07 552.687 1417.08 552.687H1522.4L1526.03 559.148C1529.82 565.893 1532.2 570.261 1536.53 578.435C1537.95 581.116 1539.67 584.098 1540.35 585.062C1541.03 586.026 1542.53 588.605 1543.68 590.792C1544.84 592.979 1547.39 597.601 1549.35 601.063C1551.32 604.526 1553.75 608.999 1554.77 611.004C1555.78 613.008 1557.59 616.22 1558.79 618.14C1559.99 620.062 1560.97 621.855 1560.97 622.127C1560.97 622.4 1562.2 624.705 1563.71 627.25C1565.21 629.796 1567.48 633.817 1568.75 636.186C1570.02 638.555 1571.28 640.792 1571.56 641.156C1571.84 641.521 1573.41 644.354 1575.05 647.452C1578.96 654.819 1583.32 662.77 1584.14 664.019C1584.5 664.566 1586.25 667.697 1588.02 670.978C1589.8 674.258 1592.82 679.775 1594.73 683.237C1596.65 686.7 1599.41 691.77 1600.88 694.503C1602.34 697.237 1603.92 699.921 1604.38 700.468C1604.85 701.014 1606.31 703.549 1607.63 706.1C1608.96 708.652 1611.66 713.572 1613.64 717.035C1615.63 720.497 1618.6 725.865 1620.25 728.963C1621.9 732.061 1623.96 735.475 1624.82 736.549L1626.4 738.502L1628.27 735.555C1629.29 733.934 1631.82 729.477 1633.89 725.65C1635.96 721.823 1638.88 716.488 1640.4 713.796C1641.91 711.102 1643.15 708.74 1643.15 708.546C1643.15 708.352 1643.55 707.722 1644.05 707.147C1644.54 706.571 1646.09 703.864 1647.48 701.13C1648.87 698.397 1650.37 695.713 1650.81 695.166C1651.25 694.619 1652.79 691.935 1654.24 689.202C1657.34 683.325 1662.43 674.087 1667.37 665.345C1669.33 661.882 1672.14 656.813 1673.63 654.079C1675.11 651.345 1677.93 646.276 1679.9 642.813C1683.92 635.716 1688.64 627.134 1692.83 619.288C1694.39 616.372 1696.19 613.24 1696.84 612.329C1697.48 611.418 1698.87 608.883 1699.94 606.696C1701 604.509 1702.64 601.516 1703.58 600.045C1704.51 598.574 1706.28 595.48 1707.51 593.169C1708.74 590.859 1710.35 587.888 1711.09 586.567C1711.83 585.246 1714.06 581.183 1716.05 577.538C1718.05 573.893 1720.2 570.016 1720.84 568.923C1721.47 567.829 1723.22 564.572 1724.72 561.684C1726.21 558.796 1728.06 555.59 1728.82 554.56L1730.21 552.687L1834.62 552.677C1892.05 552.673 1939.71 552.489 1940.53 552.269C1941.95 551.889 1942.58 550.396 1941.52 549.925C1941.25 549.804 1940.31 548.363 1939.44 546.723C1937.85 543.732 1933.22 535.738 1929.02 528.721C1927.78 526.657 1925.91 523.376 1924.87 521.431C1923.82 519.486 1921.37 515.128 1919.41 511.746C1917.45 508.364 1914.48 503.146 1912.81 500.149C1911.14 497.152 1908.04 491.719 1905.91 488.074C1903.78 484.429 1900.96 479.509 1899.64 477.14C1898.32 474.771 1896.65 471.832 1895.94 470.611C1892.77 465.193 1886.35 453.759 1886.35 453.523C1886.35 453.379 1885.35 451.701 1884.12 449.794C1882.89 447.886 1880.73 444.272 1879.32 441.764C1875.19 434.453 1871.54 428.09 1864.75 416.389C1862.6 412.68 1859.95 408.08 1858.85 406.165C1857.76 404.251 1856.16 401.47 1855.3 399.985C1847.59 386.626 1843.73 379.887 1841.64 376.079C1840.64 374.256 1839.07 371.493 1838.17 369.938C1836.44 366.991 1836.48 364.591 1838.27 362.494C1838.73 361.947 1840.24 359.412 1841.62 356.861C1842.99 354.309 1844.63 351.476 1845.25 350.565C1845.88 349.654 1847.29 347.268 1848.4 345.264C1852.02 338.697 1856.06 331.739 1858.22 328.365C1859.39 326.542 1861.13 323.56 1862.1 321.738C1863.73 318.672 1864.75 316.92 1870.77 306.827C1871.97 304.823 1873.75 301.691 1874.74 299.869C1875.73 298.047 1878.14 293.872 1880.09 290.591C1882.04 287.311 1884.73 282.689 1886.08 280.32C1887.42 277.95 1889.19 274.968 1890.01 273.693C1890.83 272.417 1892.39 269.733 1893.47 267.728C1894.55 265.724 1896.34 262.592 1897.44 260.77C1900.8 255.185 1905.87 246.299 1906.9 244.203C1907.43 243.109 1908.5 241.32 1909.28 240.227C1910.05 239.133 1911.54 236.598 1912.59 234.594C1913.63 232.589 1915.13 230.054 1915.92 228.961C1916.71 227.867 1918.17 225.333 1919.16 223.328C1920.15 221.323 1921.35 219.236 1921.81 218.689C1922.28 218.142 1923.93 215.309 1925.48 212.393C1927.03 209.478 1928.66 206.645 1929.1 206.098C1929.54 205.551 1930.81 203.464 1931.91 201.459C1934.13 197.399 1939.34 188.579 1941.84 184.652C1943.03 182.771 1943.27 181.897 1942.72 181.354C1942.19 180.818 1912.98 180.606 1836.05 180.579C1745.98 180.546 1729.94 180.401 1728.99 179.608C1728.37 179.095 1726.95 176.868 1725.84 174.66C1724.73 172.451 1723.32 169.898 1722.69 168.987C1722.07 168.076 1720.28 164.945 1718.73 162.029C1717.17 159.113 1715.51 156.28 1715.05 155.733C1714.58 155.186 1713.1 152.652 1711.76 150.1C1708.27 143.455 1705.52 138.551 1703.66 135.634C1702.77 134.237 1700.83 130.808 1699.37 128.013C1697.9 125.217 1696.4 122.568 1696.04 122.127C1695.67 121.685 1694.18 119.001 1692.71 116.162C1691.24 113.323 1689.67 110.554 1689.22 110.007C1688.77 109.46 1687.43 107.075 1686.25 104.706C1685.07 102.337 1683.74 99.9508 1683.3 99.4041C1682.86 98.8574 1681.69 96.8037 1680.7 94.8408C1679.71 92.8779 1677.91 89.5976 1676.69 87.5512C1675.48 85.5048 1672.98 81.1469 1671.16 77.8665C1669.33 74.5862 1667 70.4112 1665.98 68.5888C1664.96 66.7664 1662.66 62.5914 1660.86 59.3111C1659.07 56.0308 1657.27 52.9559 1656.88 52.4774C1656.49 51.9989 1655.25 49.9115 1654.13 47.8386C1651.14 42.3243 1648.41 37.4985 1645.88 33.2454C1644.65 31.1798 1642.6 27.5515 1641.33 25.1824C1640.06 22.8132 1638.74 20.517 1638.38 20.0796C1638.03 19.6416 1636.31 16.6595 1634.57 13.4527C1628.22 1.76012 1627.12 0 1626.19 0C1625.67 0 1624.24 1.56595 1623.02 3.47914ZM1614.32 56.3687C1613.23 58.209 1610.96 62.1587 1609.29 65.1461C1607.62 68.1329 1604.89 72.9626 1603.23 75.8785C1596.47 87.7698 1591.85 95.9568 1589.97 99.4041C1588.88 101.409 1587.49 103.792 1586.9 104.702C1585.66 106.611 1580.71 115.526 1577.16 122.267C1575.81 124.818 1573.86 128.152 1572.81 129.676C1571.77 131.199 1570.91 132.708 1570.91 133.029C1570.91 133.349 1569.84 135.382 1568.52 137.548C1567.2 139.713 1565.1 143.408 1563.84 145.758C1562.58 148.109 1560.56 151.687 1559.35 153.711C1556.29 158.817 1554.11 162.681 1551.66 167.33C1550.5 169.517 1548.91 172.201 1548.12 173.294C1547.32 174.388 1545.67 177.221 1544.44 179.59C1543.22 181.959 1541.71 184.643 1541.09 185.554C1540.48 186.466 1538.86 189.299 1537.5 191.85C1536.14 194.401 1534.55 197.011 1533.98 197.648C1532.99 198.741 1528.12 198.813 1450.7 198.886C1405.47 198.928 1366.52 199.181 1364.15 199.447C1361.78 199.713 1360.2 199.977 1360.63 200.033C1361.05 200.088 1361.8 200.519 1362.28 200.99C1362.76 201.462 1365.2 203.027 1367.69 204.47C1370.18 205.912 1373.61 207.908 1375.31 208.904C1377.01 209.901 1379.29 211.168 1380.39 211.72C1381.48 212.272 1385.81 214.802 1390 217.342C1394.19 219.883 1399.81 223.238 1402.5 224.798C1405.18 226.358 1408.46 228.286 1409.79 229.081C1411.11 229.876 1413.09 231.007 1414.19 231.596C1415.28 232.183 1417.66 233.523 1419.49 234.572C1421.31 235.621 1423.83 236.961 1425.1 237.55C1426.36 238.139 1427.55 238.873 1427.75 239.18C1427.94 239.488 1429.2 240.296 1430.54 240.977C1435.28 243.38 1442.02 247.411 1442.49 248.122C1442.82 248.628 1460.29 248.894 1501.48 249.018L1560 249.194L1562.83 243.716C1566.61 236.394 1568.14 233.567 1570.49 229.623C1571.57 227.801 1573.5 224.372 1574.77 222.002C1576.04 219.633 1577.6 216.949 1578.22 216.038C1578.85 215.127 1580.67 211.879 1582.26 208.819C1583.86 205.759 1585.47 202.777 1585.85 202.192C1586.23 201.607 1587.66 199.04 1589.02 196.489C1593.29 188.527 1594.3 186.683 1596.99 181.969C1598.42 179.45 1600.47 175.723 1601.54 173.685C1602.61 171.648 1603.87 169.534 1604.33 168.987C1604.8 168.44 1606.46 165.607 1608.02 162.691C1609.58 159.776 1612.16 154.957 1613.75 151.984L1616.65 146.578L1616.48 99.8004L1616.31 53.0221L1614.32 56.3687ZM1635.23 99.4041L1635.23 146.124L1636.7 148.815C1637.51 150.295 1639.33 153.724 1640.73 156.436C1642.14 159.147 1643.67 161.813 1644.12 162.36C1644.58 162.907 1646.09 165.591 1647.48 168.324C1648.87 171.058 1650.36 173.742 1650.79 174.289C1651.22 174.835 1652.7 177.37 1654.07 179.921C1655.44 182.473 1656.79 184.858 1657.08 185.223C1657.36 185.587 1658.92 188.42 1660.54 191.519C1662.16 194.617 1665.02 199.91 1666.9 203.281C1673.79 215.649 1677.21 221.79 1680.08 226.973C1681.7 229.889 1684.63 235.107 1686.59 238.57C1688.56 242.032 1690.67 245.834 1691.3 247.019L1692.43 249.173L1750.13 249.147L1807.83 249.121L1811.47 246.869C1817.91 242.885 1823.26 239.895 1823.95 239.895C1824.31 239.895 1824.71 239.647 1824.83 239.343C1824.96 239.04 1827.14 237.641 1829.69 236.235C1832.25 234.828 1834.48 233.511 1834.66 233.307C1834.85 233.103 1836.04 232.4 1837.32 231.744C1838.59 231.088 1840.72 229.895 1842.04 229.093C1843.37 228.291 1846.76 226.293 1849.58 224.653C1852.39 223.013 1855.78 221.015 1857.11 220.213C1858.43 219.411 1860.56 218.218 1861.83 217.562C1863.11 216.906 1864.3 216.197 1864.49 215.985C1864.67 215.773 1867.95 213.851 1871.78 211.714C1875.6 209.576 1879.03 207.571 1879.4 207.258C1879.76 206.946 1882.52 205.188 1885.53 203.352C1888.54 201.517 1890.83 199.743 1890.62 199.411C1890.4 199.054 1855.48 198.804 1804.97 198.798C1758.06 198.792 1719.36 198.569 1718.96 198.301C1718.56 198.033 1717.48 196.472 1716.55 194.832C1715.63 193.192 1713.87 190.16 1712.64 188.094C1710.29 184.147 1707.77 179.699 1704.44 173.626C1703.34 171.621 1701.13 167.744 1699.53 165.011C1696.63 160.055 1693.21 154.1 1690 148.443C1688.13 145.149 1683.15 136.065 1679.28 128.894C1677.9 126.343 1676.29 123.519 1675.7 122.62C1675.11 121.72 1673.43 118.863 1671.97 116.272C1668.27 109.695 1665.71 105.213 1663.16 100.869C1661.95 98.8189 1660.03 95.3398 1658.89 93.137C1657.75 90.9342 1656.45 88.685 1656.02 88.1383C1655.58 87.5916 1653.64 84.3112 1651.71 80.8487C1649.78 77.3861 1646.93 72.3165 1645.38 69.5829C1643.83 66.8493 1641.54 62.6743 1640.28 60.3052C1639.02 57.936 1637.37 55.2521 1636.62 54.3409L1635.24 52.6842L1635.23 99.4041ZM1614.32 188.918C1610.49 195.393 1605.36 204.476 1603.3 208.417C1602.16 210.604 1600.6 213.28 1599.84 214.364C1599.07 215.447 1597.28 218.578 1595.87 221.322C1594.45 224.065 1592.91 226.757 1592.45 227.304C1591.98 227.851 1590.49 230.535 1589.13 233.268C1587.76 236.002 1586.43 238.388 1586.15 238.57C1585.65 238.907 1580.85 248.19 1580.85 248.825C1580.85 249.017 1588.9 249.173 1598.75 249.173H1616.64V217.364C1616.64 199.868 1616.56 185.554 1616.47 185.555C1616.38 185.556 1615.41 187.069 1614.32 188.918ZM1635.22 217.198L1635.19 249.173H1653.42C1663.44 249.173 1671.64 249.009 1671.64 248.808C1671.64 248.19 1669.54 244.258 1668.65 243.209C1668.19 242.662 1666.76 240.189 1665.47 237.714C1664.19 235.239 1662.85 232.853 1662.5 232.413C1661.88 231.65 1657.14 223.219 1652.9 215.376C1651.82 213.371 1650.56 211.126 1650.1 210.387C1649.65 209.647 1647.99 206.665 1646.42 203.76C1644.86 200.854 1643.37 198.328 1643.12 198.145C1642.86 197.963 1641.6 195.727 1640.32 193.175C1639.04 190.624 1637.37 187.791 1636.62 186.88L1635.24 185.223L1635.22 217.198ZM1351.3 218.192C1351.91 219.377 1352.92 221.091 1353.56 222.002C1354.2 222.914 1355.82 225.747 1357.17 228.298C1358.52 230.849 1360.01 233.384 1360.49 233.931C1360.96 234.478 1362.29 236.793 1363.43 239.077C1364.57 241.36 1366.48 244.789 1367.67 246.698C1368.85 248.606 1370.26 251.062 1370.79 252.155C1371.31 253.249 1372.38 255.038 1373.16 256.131C1373.93 257.225 1375.42 259.759 1376.47 261.764C1377.51 263.769 1379.01 266.304 1379.8 267.397C1380.59 268.49 1382.05 271.025 1383.04 273.03C1384.03 275.035 1385.22 277.122 1385.67 277.669C1386.12 278.215 1387.53 280.601 1388.81 282.97C1390.08 285.339 1392.02 288.769 1393.13 290.591C1396.18 295.636 1401.83 305.28 1406.9 314.098C1407.99 316.001 1410.3 319.935 1412.03 322.84C1413.76 325.745 1415.18 328.266 1415.18 328.441C1415.18 328.617 1416.17 330.311 1417.38 332.207C1418.59 334.103 1420.58 337.593 1421.81 339.962C1423.04 342.331 1424.41 344.717 1424.86 345.264C1425.31 345.81 1426.78 348.345 1428.13 350.896C1429.47 353.448 1431.1 356.281 1431.74 357.192C1433.65 359.916 1436.39 365.679 1436.37 366.945C1436.35 368.192 1434.23 372.231 1428.42 382.043C1426.48 385.323 1423.65 390.274 1422.14 393.046C1420.62 395.817 1418.8 398.948 1418.08 400.004C1417.37 401.06 1415.93 403.564 1414.88 405.569C1413.84 407.573 1412.47 409.959 1411.85 410.87C1411.23 411.781 1409.59 414.614 1408.21 417.166C1406.83 419.717 1405.15 422.596 1404.47 423.564C1403.8 424.531 1403.25 425.506 1403.25 425.729C1403.25 425.953 1402.02 428.144 1400.51 430.597C1399 433.051 1396.74 436.997 1395.47 439.366C1394.21 441.735 1392.8 444.121 1392.34 444.668C1391.88 445.214 1390.39 447.749 1389.02 450.301C1387.65 452.852 1386.15 455.387 1385.69 455.933C1385.22 456.48 1384.03 458.568 1383.03 460.572C1382.03 462.577 1380.7 464.963 1380.06 465.874C1379.43 466.785 1377.95 469.32 1376.77 471.507C1375.58 473.694 1373.95 476.527 1373.13 477.802C1371.31 480.671 1366.72 488.674 1363.73 494.237C1362.49 496.533 1360.78 499.516 1359.93 500.864C1356.87 505.7 1350.73 516.958 1351 517.227C1351.24 517.461 1363.3 510.891 1370.46 506.63C1374.74 504.081 1382.84 499.333 1384.26 498.535C1385.04 498.093 1386.14 497.422 1386.68 497.044C1389.61 495.021 1394.09 492.382 1394.61 492.382C1394.94 492.382 1395.6 491.988 1396.08 491.508C1396.56 491.026 1400.24 488.768 1404.24 486.488C1411.64 482.284 1425.8 474.012 1429.43 471.774C1430.52 471.101 1432.31 470.058 1433.4 469.457C1436.46 467.778 1437.71 466.474 1439.03 463.571C1439.7 462.104 1441.03 459.753 1441.99 458.347C1442.95 456.941 1444.93 453.511 1446.39 450.726C1449.06 445.649 1450.31 443.401 1454.95 435.39C1456.33 433.021 1458.27 429.591 1459.27 427.769C1460.27 425.947 1462.72 421.473 1464.72 417.829C1466.71 414.184 1468.84 410.456 1469.45 409.545C1470.06 408.634 1470.99 406.993 1471.51 405.9C1472.03 404.807 1473.39 402.421 1474.54 400.599C1475.69 398.776 1477.67 395.347 1478.94 392.978C1480.21 390.608 1482.69 386.135 1484.44 383.037C1486.19 379.939 1488.93 374.954 1490.52 371.959L1493.43 366.514L1492 363.675C1490.45 360.574 1485.15 351.031 1481.78 345.264C1480.61 343.259 1478.8 339.979 1477.75 337.974C1476.7 335.969 1475.17 333.407 1474.34 332.279C1473.51 331.151 1472.83 330.069 1472.83 329.874C1472.83 329.68 1471.45 327.024 1469.76 323.973C1468.07 320.921 1465.72 316.635 1464.54 314.448C1461.67 309.132 1456.93 300.73 1454.19 296.114C1452.96 294.048 1451.07 290.768 1449.98 288.824C1444.76 279.503 1443.79 277.817 1442.27 275.349C1441.38 273.891 1439.91 271.257 1439.01 269.494C1437.17 265.869 1435.64 264.749 1421.63 256.72C1416.61 253.845 1411.48 250.896 1410.24 250.167C1408.99 249.438 1404.6 246.932 1400.48 244.598C1396.35 242.264 1392.83 240.152 1392.65 239.907C1392.47 239.661 1391.42 239.003 1390.33 238.443C1388.66 237.59 1381.43 233.408 1370.49 226.973C1362.63 222.347 1351.25 216.038 1350.77 216.038C1350.46 216.038 1350.7 217.007 1351.3 218.192ZM1900.63 216.653C1900.42 216.991 1899.14 217.63 1897.78 218.074C1896.41 218.518 1895.15 219.075 1894.97 219.311C1894.79 219.547 1891.51 221.494 1887.68 223.635C1883.85 225.778 1880.57 227.716 1880.39 227.944C1880.21 228.172 1875.59 230.87 1870.12 233.94C1864.65 237.01 1859.78 239.904 1859.3 240.371C1858.82 240.838 1858.02 241.221 1857.53 241.221C1857.03 241.221 1856.2 241.645 1855.69 242.163C1855.17 242.681 1853.68 243.65 1852.38 244.317C1850.12 245.474 1842.52 249.855 1837.41 252.95C1836.08 253.752 1833.95 254.945 1832.68 255.601C1831.4 256.257 1830.02 257.092 1829.62 257.457C1829.21 257.821 1825.86 259.759 1822.17 261.764C1818.48 263.769 1815.46 265.664 1815.45 265.976C1815.45 266.287 1814.54 267.883 1813.44 269.522C1812.33 271.16 1810.65 274.037 1809.71 275.913C1808.76 277.79 1807.46 280.071 1806.82 280.982C1806.19 281.893 1804.63 284.577 1803.38 286.947C1800.2 292.925 1794.94 302.179 1793.54 304.227C1792.91 305.166 1791.14 308.297 1789.63 311.185C1788.11 314.073 1785.6 318.673 1784.04 321.407C1777.96 332.102 1774.02 339.203 1771.18 344.601C1769.55 347.699 1767.85 350.681 1767.41 351.228C1766.96 351.775 1765.33 354.608 1763.77 357.523C1762.21 360.439 1760.53 363.413 1760.03 364.132C1758.78 365.928 1758.89 367.981 1760.33 369.859C1761 370.729 1762.6 373.378 1763.89 375.747C1765.17 378.117 1768.25 383.634 1770.72 388.007C1773.2 392.381 1776.27 397.898 1777.54 400.267C1778.82 402.636 1780.38 405.32 1781 406.231C1781.62 407.143 1782.67 409.081 1783.33 410.539C1783.99 411.997 1785.04 413.935 1785.66 414.846C1787.05 416.883 1792.09 425.849 1796.09 433.402C1797.73 436.5 1799.44 439.482 1799.89 440.029C1800.35 440.576 1801.68 442.961 1802.86 445.33C1804.03 447.699 1805.37 450.085 1805.83 450.632C1806.28 451.179 1807.47 453.117 1808.45 454.939C1813.11 463.559 1816.46 468.452 1818.39 469.462C1819.5 470.047 1821.46 471.162 1822.74 471.941C1825.08 473.372 1825.86 473.822 1835.11 479.057C1837.94 480.659 1840.66 482.374 1841.15 482.868C1841.64 483.362 1842.38 483.767 1842.78 483.767C1843.18 483.767 1843.98 484.183 1844.55 484.692C1845.13 485.201 1847.69 486.709 1850.24 488.044C1852.79 489.379 1856.22 491.343 1857.86 492.409C1859.5 493.475 1861.29 494.576 1861.83 494.855C1863.67 495.793 1869.45 499.272 1869.79 499.639C1869.97 499.839 1871.16 500.539 1872.44 501.195C1873.71 501.852 1875.84 503.044 1877.17 503.846C1882.43 507.028 1889.9 511.333 1892.21 512.506C1893.54 513.187 1894.79 513.932 1894.97 514.163C1895.31 514.598 1900.08 516.901 1900.63 516.901C1900.81 516.901 1899.59 514.292 1897.92 511.103C1894.94 505.378 1893.88 503.484 1889 495.032C1887.63 492.663 1885.62 489.085 1884.55 487.08C1883.47 485.075 1881.7 481.944 1880.6 480.122C1879.51 478.299 1876.89 473.826 1874.77 470.181C1872.65 466.537 1869.95 461.914 1868.77 459.91C1867.6 457.905 1865.97 454.923 1865.15 453.283C1864.34 451.643 1863.28 449.853 1862.8 449.307C1862.33 448.76 1860.83 446.225 1859.47 443.674C1858.12 441.122 1856.63 438.587 1856.18 438.041C1855.73 437.494 1854.54 435.407 1853.54 433.402C1852.54 431.397 1851.21 429.012 1850.58 428.1C1849.95 427.189 1848.61 424.962 1847.61 423.152C1846.61 421.342 1844.29 417.316 1842.46 414.206C1838.13 406.866 1834.55 400.677 1832.49 396.954C1829.39 391.349 1825.17 384.033 1823.71 381.712C1820.63 376.827 1815.45 367.27 1815.45 366.482C1815.45 366.029 1817.29 362.486 1819.54 358.609C1821.79 354.731 1824.91 349.219 1826.47 346.357C1828.03 343.496 1829.59 340.812 1829.93 340.393C1830.69 339.457 1836.79 328.991 1839.38 324.166C1840.43 322.221 1842.38 318.792 1843.72 316.545C1845.06 314.299 1847.41 310.373 1848.93 307.821C1850.45 305.27 1852.71 301.319 1853.94 299.041C1855.17 296.763 1856.41 294.899 1856.69 294.899C1856.97 294.899 1857.2 294.627 1857.2 294.296C1857.2 293.399 1862.59 284 1863.25 283.744C1863.57 283.622 1863.82 283.174 1863.82 282.75C1863.82 282.324 1865.33 279.441 1867.18 276.343C1869.02 273.245 1871.78 268.516 1873.31 265.834C1874.83 263.152 1876.91 259.573 1877.93 257.881C1878.94 256.19 1879.95 254.359 1880.18 253.812C1880.41 253.265 1880.97 252.37 1881.43 251.824C1881.88 251.277 1883.23 249.04 1884.41 246.854C1886.82 242.405 1892.37 232.865 1894.67 229.232C1896.6 226.181 1901.71 216.038 1901.31 216.038C1901.15 216.038 1900.84 216.315 1900.63 216.653ZM1477.47 267.388C1477.47 267.813 1482.44 270.986 1485.59 272.577C1486.96 273.267 1488.08 274.066 1488.08 274.353C1488.08 274.64 1488.8 275.056 1489.69 275.278C1490.57 275.501 1491.69 276.073 1492.17 276.549C1492.65 277.027 1496.13 279.188 1499.89 281.353C1510.01 287.17 1510.62 287.534 1518.92 292.579C1523.11 295.131 1527.61 297.756 1528.91 298.414C1531.79 299.865 1531.72 299.935 1536.06 291.585C1542.36 279.499 1544.61 275.286 1545.64 273.693C1546.22 272.781 1547.21 270.918 1547.84 269.551L1548.98 267.066H1513.23C1493.56 267.066 1477.47 267.211 1477.47 267.388ZM1567.42 272.202C1563.11 279.709 1561.19 283.159 1557 290.923C1549.97 303.966 1548.19 307.158 1547.4 308.153C1546.97 308.699 1546.08 310.34 1545.43 311.798C1544.77 313.255 1543.27 316.088 1542.09 318.093C1540.91 320.098 1538.97 323.527 1537.78 325.714C1530.88 338.403 1528.3 342.98 1527.92 343.275C1527.68 343.458 1526.76 345.098 1525.87 346.92C1524.98 348.743 1523.31 351.725 1522.17 353.547C1519.42 357.917 1515.25 365.698 1515.25 366.443C1515.25 366.767 1517.08 370.261 1519.32 374.207C1521.57 378.152 1524.13 382.722 1525.03 384.363C1525.93 386.003 1527.97 389.608 1529.57 392.373C1531.17 395.139 1532.48 397.628 1532.48 397.904C1532.48 398.18 1533.03 399.198 1533.71 400.165C1534.39 401.133 1536.15 404.16 1537.62 406.894C1539.08 409.628 1542.13 415.145 1544.4 419.154C1546.66 423.163 1549.7 428.68 1551.15 431.414C1552.6 434.147 1555.34 439.217 1557.24 442.68C1559.14 446.142 1561.84 451.063 1563.24 453.614C1564.65 456.165 1566.82 459.967 1568.07 462.063L1570.35 465.874H1626.49H1682.63L1685 461.401C1686.3 458.941 1689.24 453.498 1691.52 449.307C1693.8 445.115 1696.63 439.896 1697.8 437.709C1700.01 433.585 1705.48 423.692 1710.63 414.515C1712.27 411.599 1715.08 406.53 1716.88 403.249C1718.68 399.969 1721.74 394.452 1723.68 390.989C1725.62 387.527 1728.24 382.755 1729.51 380.386C1730.78 378.017 1732.89 374.307 1734.2 372.142C1735.51 369.976 1736.58 367.59 1736.58 366.84C1736.57 365.331 1735.61 363.417 1729.31 352.425C1726.95 348.304 1724.39 343.739 1723.63 342.281C1717.92 331.46 1715.05 326.238 1714.36 325.383C1713.91 324.836 1712.21 321.854 1710.58 318.756C1708.94 315.658 1706.04 310.29 1704.12 306.827C1697.3 294.544 1694.32 289.198 1691.18 283.633C1689.43 280.535 1686.69 275.54 1685.09 272.533L1682.17 267.066H1626.27H1570.38L1567.42 272.202ZM1703.46 267.563C1703.47 267.836 1705 270.893 1706.87 274.355C1708.74 277.818 1711.02 282.142 1711.95 283.964C1713.54 287.102 1720.39 298.809 1720.99 299.41C1721.27 299.685 1729.97 295.059 1730.62 294.291C1730.98 293.874 1737.87 289.597 1738.19 289.597C1738.29 289.597 1741.03 287.961 1744.27 285.96C1747.52 283.96 1751.2 281.862 1752.47 281.296C1753.73 280.73 1754.92 280.017 1755.12 279.709C1755.31 279.402 1756.56 278.593 1757.89 277.913C1761.73 275.945 1769.36 271.494 1769.72 271.007C1769.9 270.764 1771 270.077 1772.16 269.483C1773.32 268.887 1774.46 268.1 1774.69 267.733C1774.96 267.288 1763.16 267.066 1739.28 267.066C1719.57 267.066 1703.46 267.289 1703.46 267.563ZM1468.65 285.455C1468.87 286.093 1469.42 287.062 1469.86 287.609C1470.3 288.156 1471.65 290.542 1472.86 292.911C1474.08 295.28 1475.44 297.666 1475.88 298.212C1476.32 298.759 1478.25 302.039 1480.16 305.502C1482.06 308.964 1484.97 314.183 1486.61 317.099C1488.25 320.015 1490.97 324.843 1492.64 327.829C1499.29 339.659 1502.04 344.336 1503.2 345.828L1504.42 347.386L1506.43 344.171C1508.59 340.732 1511.7 335.108 1516.45 326.045C1518.08 322.947 1519.78 319.965 1520.23 319.418C1520.68 318.872 1521.26 317.76 1521.5 316.948C1521.87 315.752 1521.54 315.22 1519.76 314.147C1518.55 313.419 1517.12 312.507 1516.57 312.12C1516.02 311.734 1514.93 311.056 1514.13 310.614C1506.15 306.177 1502.22 303.841 1501.47 303.087C1500.98 302.593 1500.33 302.188 1500.04 302.188C1499.75 302.188 1496.87 300.567 1493.63 298.585C1490.39 296.603 1485.51 293.726 1482.77 292.193C1480.04 290.66 1477.65 289.224 1477.47 289.004C1477.07 288.521 1469.1 284.296 1468.59 284.296C1468.4 284.296 1468.42 284.818 1468.65 285.455ZM1778.95 286.806C1773.71 289.762 1767.36 293.481 1757.13 299.585C1752.94 302.086 1748.61 304.6 1747.52 305.172C1746.43 305.744 1744.45 306.872 1743.12 307.679C1741.8 308.486 1738.44 310.435 1735.67 312.01C1732.89 313.584 1730.62 315.307 1730.62 315.839C1730.62 316.874 1732.39 320.308 1738.61 331.347C1740.77 335.174 1743.61 340.468 1744.93 343.11C1746.25 345.752 1747.58 347.914 1747.88 347.914C1748.4 347.914 1749.07 346.781 1755.8 334.66C1762.14 323.24 1764.89 318.346 1766.79 315.111C1767.86 313.289 1769.17 310.903 1769.7 309.809C1770.23 308.716 1771.22 306.997 1771.9 305.99C1772.58 304.982 1773.95 302.596 1774.94 300.688C1775.93 298.78 1778.32 294.31 1780.25 290.757C1782.18 287.204 1783.65 284.307 1783.53 284.321C1783.41 284.334 1781.34 285.453 1778.95 286.806ZM1502.65 387.595C1501.77 388.915 1500.04 391.934 1498.79 394.303C1497.55 396.672 1496.01 399.356 1495.37 400.267C1494.73 401.178 1493.11 404.011 1491.76 406.563C1490.42 409.114 1487.71 414.035 1485.74 417.497C1483.77 420.96 1481.07 425.88 1479.74 428.432C1478.41 430.983 1476.95 433.518 1476.5 434.065C1476.05 434.611 1474.5 437.295 1473.06 440.029C1471.62 442.762 1469.9 445.819 1469.24 446.821C1468.2 448.399 1468.18 448.644 1469.07 448.644C1469.64 448.644 1470.31 448.312 1470.56 447.906C1470.81 447.5 1472.25 446.587 1473.75 445.876C1475.25 445.165 1478.57 443.255 1481.12 441.633C1483.67 440.01 1486.87 438.194 1488.24 437.598C1489.61 437.002 1490.73 436.297 1490.73 436.033C1490.73 435.768 1491.7 435.159 1492.88 434.68C1494.06 434.2 1495.18 433.625 1495.37 433.401C1495.55 433.176 1497.78 431.837 1500.34 430.424C1502.89 429.012 1505.37 427.463 1505.85 426.984C1506.33 426.505 1507.13 426.112 1507.62 426.112C1508.12 426.112 1508.92 425.723 1509.4 425.248C1509.88 424.773 1512.55 423.131 1515.33 421.601C1521.85 418.013 1522.47 417.288 1521 414.962C1520.38 413.987 1517.14 407.971 1513.79 401.593C1510.45 395.214 1506.93 388.915 1505.98 387.595L1504.25 385.195L1502.65 387.595ZM1744.52 390.779C1741.79 395.963 1736.02 406.506 1733.53 410.87C1730.92 415.432 1730.38 417.352 1731.41 418.381C1731.92 418.892 1733 419.518 1733.8 419.773C1734.6 420.027 1735.63 420.601 1736.08 421.048C1736.54 421.495 1739 423.016 1741.56 424.427C1744.11 425.838 1746.34 427.167 1746.53 427.381C1746.71 427.594 1747.9 428.297 1749.18 428.943C1750.45 429.588 1752.6 430.781 1753.94 431.593C1755.29 432.406 1758.57 434.352 1761.23 435.917C1763.9 437.483 1767.27 439.503 1768.73 440.405C1770.18 441.307 1772.35 442.542 1773.53 443.148C1774.72 443.754 1775.68 444.493 1775.68 444.79C1775.68 445.087 1776.06 445.33 1776.52 445.33C1776.99 445.33 1778.4 446.024 1779.67 446.872C1784.26 449.942 1784.63 449.684 1782.11 445.168C1779.07 439.731 1774.07 430.936 1772.6 428.432C1771.95 427.338 1770.19 424.207 1768.68 421.473C1767.17 418.74 1764.36 413.67 1762.43 410.208C1760.5 406.745 1757.61 401.526 1756 398.61C1752.01 391.353 1748.66 386.067 1747.89 385.811C1747.54 385.694 1746.02 387.929 1744.52 390.779ZM1715.01 443.508C1706.03 460.189 1703.38 465.362 1703.65 465.635C1703.79 465.772 1719.96 465.808 1739.59 465.714L1775.28 465.543L1771.48 463.223C1769.39 461.947 1767.04 460.381 1766.28 459.744C1765.51 459.106 1764.65 458.584 1764.36 458.584C1763.72 458.584 1757.11 454.573 1755.97 453.492C1755.51 453.06 1754.46 452.498 1753.65 452.243C1752.83 451.988 1752.01 451.578 1751.83 451.332C1751.65 451.087 1749.56 449.768 1747.19 448.403C1744.82 447.039 1740.5 444.454 1737.58 442.661C1734.66 440.868 1731.31 438.89 1730.12 438.267C1728.94 437.643 1727.97 436.89 1727.97 436.593C1727.97 436.296 1727.57 436.053 1727.07 436.053C1726.57 436.053 1725.07 435.307 1723.73 434.396C1722.38 433.485 1721.18 432.739 1721.04 432.739C1720.91 432.739 1718.19 437.585 1715.01 443.508ZM1527.17 435.422C1525.53 436.476 1523.24 437.869 1522.08 438.518C1515.66 442.109 1510.9 444.939 1510.61 445.343C1510.42 445.595 1507.95 447.111 1505.11 448.713C1502.27 450.315 1498.94 452.222 1497.71 452.951C1496.48 453.68 1492.39 456.048 1488.64 458.213C1482.54 461.725 1477.72 464.747 1476.88 465.58C1476.72 465.742 1492.74 465.874 1512.48 465.874C1541.33 465.874 1548.38 465.706 1548.38 465.02C1548.38 464.108 1547.85 463.076 1542.39 453.283C1540.46 449.82 1537.8 444.9 1536.48 442.348C1533.01 435.67 1531.57 433.404 1530.82 433.458C1530.45 433.485 1528.81 434.368 1527.17 435.422ZM1444.36 484.504C1443.46 484.864 1442.56 485.38 1442.37 485.651C1442.18 485.922 1438.89 487.897 1435.06 490.038C1431.23 492.181 1427.95 494.145 1427.77 494.405C1427.46 494.852 1426.03 495.647 1420.09 498.677C1418.67 499.406 1417.35 500.173 1417.17 500.382C1416.89 500.699 1413.27 502.802 1405.01 507.434C1404.23 507.876 1403.06 508.616 1402.41 509.079C1401.77 509.541 1400.38 510.372 1399.32 510.926C1397.37 511.943 1389.21 516.678 1384.79 519.353C1383.46 520.155 1381.33 521.348 1380.06 522.004C1378.78 522.66 1377.44 523.445 1377.07 523.747C1376.38 524.322 1370.07 528.113 1364.6 531.243C1361.95 532.755 1361.61 533.15 1362.63 533.526C1363.31 533.777 1401.81 533.968 1448.19 533.951C1530.41 533.921 1532.53 533.951 1533.48 535.185C1534.02 535.882 1535.81 539.109 1537.47 542.357C1539.13 545.606 1541.04 549.035 1541.7 549.978C1542.37 550.921 1544.01 553.78 1545.36 556.332C1548.77 562.795 1550.97 566.847 1554 572.236C1556.53 576.726 1557.92 579.252 1563.67 589.798C1565.16 592.531 1567.96 597.601 1569.9 601.063C1571.84 604.526 1574.76 609.745 1576.38 612.661C1578 615.576 1580.91 620.795 1582.84 624.258C1584.78 627.72 1587.83 633.237 1589.63 636.518C1591.43 639.798 1594.32 645.017 1596.06 648.115C1603 660.491 1607.07 667.897 1609.52 672.634C1610.94 675.368 1613.11 679.394 1614.35 681.581L1616.6 685.557L1616.67 662.031C1616.71 649.092 1616.7 627.348 1616.64 613.71L1616.54 588.915L1613.89 583.889C1611.17 578.733 1606.8 570.825 1600.86 560.308C1599.01 557.027 1596.34 552.107 1594.92 549.373C1593.5 546.64 1590.15 540.377 1587.46 535.457C1584.77 530.536 1581.78 524.954 1580.82 523.052C1579.85 521.149 1578.75 519.211 1578.36 518.744C1577.98 518.277 1576.26 515.211 1574.54 511.931C1572.82 508.651 1570.14 503.581 1568.58 500.665C1567.02 497.749 1564.47 492.978 1562.92 490.062C1561.36 487.146 1559.77 484.541 1559.37 484.274C1558.25 483.514 1446.28 483.738 1444.36 484.504ZM1580.32 484.207C1580.47 484.511 1581.61 486.848 1582.84 489.4C1584.08 491.951 1585.44 494.486 1585.87 495.032C1586.3 495.579 1587.99 498.561 1589.62 501.659C1591.26 504.757 1594.32 510.423 1596.43 514.251C1598.54 518.078 1601.38 523.296 1602.74 525.848C1604.11 528.399 1606.71 533.17 1608.52 536.451C1610.34 539.731 1612.87 544.32 1614.16 546.648L1616.49 550.88L1616.95 540.021C1617.54 526.158 1617.14 485.376 1616.42 484.649C1615.69 483.924 1579.96 483.486 1580.32 484.207ZM1635.21 517.398C1635.24 555.1 1634.85 552.964 1639.94 543.409C1641.39 540.675 1644.22 535.457 1646.22 531.812C1648.23 528.167 1650.99 523.098 1652.37 520.546C1653.75 517.995 1656.62 512.776 1658.73 508.949C1660.85 505.122 1664.03 499.307 1665.81 496.026C1667.59 492.746 1669.61 489.168 1670.3 488.074C1670.98 486.981 1671.57 485.564 1671.59 484.926C1671.64 483.849 1670.35 483.767 1653.42 483.767H1635.19L1635.21 517.398ZM1690.79 487.577C1689.59 489.673 1687.4 493.691 1685.92 496.506C1683.23 501.635 1679.74 508.074 1673.61 519.221C1671.81 522.501 1668.97 527.72 1667.31 530.818C1660.87 542.821 1655.29 553.057 1647.61 566.935C1645.79 570.215 1643.13 575.123 1641.69 577.841C1640.24 580.558 1638.55 583.54 1637.93 584.468C1635.17 588.54 1635.19 588.11 1635.19 637.691C1635.19 683.424 1635.24 685.449 1636.35 683.884C1636.99 682.984 1640.08 677.475 1643.22 671.642C1651.59 656.094 1655.82 648.489 1656.3 648.115C1656.54 647.932 1657.86 645.547 1659.23 642.813C1660.61 640.08 1663.35 635.01 1665.32 631.547C1667.3 628.085 1670.29 622.717 1671.97 619.619C1673.65 616.521 1676.65 611.153 1678.63 607.69C1680.62 604.228 1683.46 599.158 1684.95 596.425C1686.43 593.691 1689.24 588.621 1691.19 585.159C1693.14 581.696 1696.09 576.328 1697.75 573.23C1699.41 570.132 1701.69 565.957 1702.83 563.953C1703.96 561.948 1705.87 558.518 1707.06 556.332C1709.54 551.817 1712.39 546.649 1716.4 539.433L1719.16 534.463L1794.97 534.062C1894.5 533.536 1890.48 533.59 1889.99 532.797C1889.76 532.427 1888.48 531.521 1887.14 530.783C1885.8 530.046 1883.6 528.783 1882.25 527.977C1880.91 527.17 1877.63 525.229 1874.96 523.662C1872.3 522.096 1869.22 520.27 1868.13 519.605C1864.82 517.591 1855.18 511.858 1850 508.825C1847.31 507.253 1844.12 505.37 1842.9 504.641C1841.68 503.912 1837.32 501.394 1833.2 499.044C1829.09 496.695 1825.57 494.574 1825.39 494.329C1825.2 494.085 1824.39 493.677 1823.57 493.421C1822.75 493.166 1821.71 492.595 1821.25 492.152C1820.79 491.71 1817.39 489.642 1813.69 487.557L1806.96 483.767H1749.97H1692.97L1690.79 487.577Z" fill="#F0A500"/>
<path d="M299.216 1145.63C326.269 1172.32 345.421 1203.98 357.444 1241.88C369.489 1279.86 369.463 1315.19 357.347 1366.81C346.722 1412.09 346.088 1430.52 353.588 1476.18C365.118 1546.34 358.43 1593.94 328.03 1658.11C302.938 1711.08 268.645 1740.78 216.468 1754.75C149.402 1772.69 65.831 1743.68 22.7182 1687.5C11.007 1672.23 -2.74743 1642.26 0.477003 1639.03C1.47798 1638.03 13.7831 1641.53 27.8227 1646.81C61.9415 1659.65 108.754 1662.97 137.572 1654.6C169.177 1645.41 191.963 1625.25 209.936 1590.59C218.244 1574.56 227.019 1553.94 229.436 1544.77C231.857 1535.59 247.213 1485.54 263.562 1433.54C309.244 1288.27 307.495 1295.58 307.539 1250.03C307.584 1206.01 302.156 1178.67 286.552 1144.37L277.276 1123.98L299.216 1145.63Z" fill="url(#text-shimmer)"/>
<path d="M2840.01 1147.84C2850.32 1137.53 2859.43 1129.78 2860.26 1130.6C2861.08 1131.43 2857.8 1141.12 2852.97 1152.14C2838.59 1184.94 2834.16 1209.92 2834.66 1255.59C2835.08 1294.26 2836.48 1302.53 2849.78 1344.57C2857.85 1370.05 2877.35 1431.78 2893.12 1481.74C2908.89 1531.69 2925.64 1580.08 2930.33 1589.25C2943.71 1615.42 2963.8 1636.08 2986.88 1647.42C3006.05 1656.83 3011.87 1657.84 3047.03 1657.84C3080.35 1657.84 3089.92 1656.37 3113.46 1647.65C3128.58 1642.04 3141.68 1638.18 3142.57 1639.07C3146.36 1642.85 3124.26 1682.78 3109.55 1698.74C3076.28 1734.83 3033.24 1755.06 2982.04 1758.67C2908.74 1763.85 2849.22 1730.32 2817.79 1666.15C2785.19 1599.59 2777.38 1548.27 2789.02 1477.15C2796.9 1429.04 2796.54 1418.06 2785.66 1372.01C2773.46 1320.36 2773.18 1274.79 2784.86 1240.76C2796.84 1205.85 2818.51 1169.34 2840.01 1147.84Z" fill="url(#text-shimmer)"/>
<path d="M516.891 655C519.371 655 547.132 684.867 597.674 741.908L636.898 786.181L638.003 1092.25L639.108 1398.32L652.484 1430.76L665.863 1463.2H515.278L528.995 1434.47L542.716 1405.74L543.847 1295.31L544.94 1188.5L545.001 1188.5V1113.5L544.57 1113.48V1029.44C544.57 978.466 543.735 936.759 542.716 936.759C541.697 936.759 540.862 937.285 540.862 937.927C540.861 939.149 500.632 1081.29 492.063 1110.5L492.001 1110.5L480.501 1149.5L473.092 1187L473.089 1187L460.758 1229.64C453.977 1253.09 433.583 1323.92 415.436 1387.06C395.654 1455.88 381.603 1498.93 380.346 1494.57C379.197 1490.57 376.26 1472.08 373.824 1453.47C369.976 1424.06 370.306 1413.66 376.349 1373.77C380.171 1348.53 383.278 1310.37 383.252 1288.96C383.208 1255.43 381.676 1245.66 372.2 1218.52C363.766 1194.36 361.204 1180.52 361.223 1159.2C361.241 1133.72 364.693 1121.03 402.578 1007.2C460.487 833.205 514.911 664.731 514.911 659.452C514.911 657.006 515.801 655 516.891 655ZM2572.45 719.927C2599.96 684.377 2623.45 656.475 2624.67 657.925C2625.89 659.376 2641.59 706.425 2659.57 762.479C2677.54 818.535 2712.33 924.472 2736.88 997.896C2777.72 1120.04 2781.53 1133.76 2781.69 1159.2C2781.83 1180.86 2779.5 1193.56 2771.15 1216.66C2756.96 1255.94 2754.51 1300.04 2763.48 1354.72C2768.31 1384.14 2769.47 1405.94 2767.97 1439C2764.75 1509.87 2761.94 1510.68 2743.47 1446.03C2734.81 1415.72 2714.23 1344.61 2697.73 1288.03L2671.64 1198.52L2672 1198.5L2646 1100.5L2645.63 1100.52C2634.09 1059.87 2605.28 964.661 2603.67 963.018C2602.83 962.169 2602.15 997.622 2602.15 1041.8V1122.13H2602.5V1151L2605.86 1200.97L2605.9 1288.03C2605.94 1398.57 2607.46 1410.24 2626.23 1443.82C2631.34 1452.96 2635.52 1461.05 2635.52 1461.82C2635.52 1462.58 2603.64 1463.2 2564.68 1463.2C2509.44 1463.2 2494.28 1462.18 2495.8 1458.57C2496.87 1456.02 2502.48 1443.09 2508.24 1429.84L2518.74 1405.74L2520.59 1095.15L2522.44 784.568L2572.45 719.927ZM2394.97 884.997C2402.57 884.82 2499.69 987.198 2496.63 992.154C2495.37 994.179 2482.03 1005.9 2466.98 1018.2L2439.62 1040.56L2421.92 1016.46C2412.19 1003.21 2403.16 992.369 2401.86 992.369C2400.56 992.37 2394.2 998.946 2387.74 1006.98L2376 1021.59V1294.62L2389.12 1314.09C2400.25 1330.62 2403.27 1333 2409.13 1329.87C2418.26 1324.98 2444.93 1294.82 2457.76 1274.86C2463.4 1266.09 2468.83 1260.25 2469.84 1261.89C2476.43 1272.65 2494.81 1347.09 2492.82 1355.01C2490.02 1366.18 2443.77 1414.94 2421.1 1430.63L2405.02 1441.75L2384.98 1427.95C2362.71 1412.61 2313.16 1365.15 2296.17 1342.88L2285.17 1328.47L2284 1179.88C2283.35 1098.16 2283.93 1020.57 2285.29 1007.46L2287.76 983.616L2338.37 934.375C2366.2 907.293 2391.67 885.075 2394.97 884.997ZM1578.54 920.324C1632.16 878.768 1618.66 877.363 1686.74 931.591C1741.78 975.434 1748.24 983.156 1751.47 1009.01C1752.87 1020.24 1753.38 1092.2 1752.6 1168.92L1751.18 1308.4L1715.86 1342.24C1696.43 1360.85 1668.78 1386.45 1654.4 1399.13L1628.25 1422.18L1580.42 1380.06C1554.11 1356.89 1525.07 1330.18 1515.9 1320.71L1499.21 1303.48V1152.56C1499.21 1069.55 1500.48 997.102 1502.04 991.554C1505.52 979.123 1519.7 965.921 1578.54 920.324ZM792.963 899.719C805.665 899.675 861.553 931.605 880.493 949.734C892.186 960.927 897.799 970.477 903.367 988.662C911.294 1014.55 925.022 1087.7 922.435 1090.27C920.67 1092.01 845.199 1075.5 842.467 1072.77C841.503 1071.8 839.141 1059.93 837.225 1046.39C829.895 994.635 810.788 975.304 780.569 989.069C768.999 994.345 763.856 1004.25 760.03 1028.63C754.039 1066.84 753.695 1066.46 836.743 1114.7C903.427 1153.43 909.393 1158.91 915.632 1187.17C921.682 1214.55 921.697 1299.98 915.657 1321.61C910.434 1340.31 889.836 1364.54 871.069 1374.06C849.519 1384.98 818.484 1390.16 785.073 1388.4C758.659 1387 750.447 1384.86 729.938 1374C710.103 1363.51 704.35 1358.25 697.413 1344.28C687.637 1324.59 669.764 1237.98 671.376 1218.11L672.474 1204.58L711.401 1216.27L750.328 1227.97L751.362 1242.7C753.746 1276.69 759.83 1295.91 771.237 1305.51C790.505 1321.72 821.732 1316.42 830.407 1295.47C835.927 1282.15 835.715 1252.41 829.973 1235.01C824.312 1217.85 806.931 1203.86 744.189 1165.95C714.901 1148.25 687.219 1129.81 682.677 1124.97C669.783 1111.25 665.871 1082.38 670.742 1036.86C676.374 984.217 679.562 973.61 693.721 960.445C708.739 946.472 737.505 926.241 763.764 911.185C774.726 904.898 787.865 899.741 792.963 899.719ZM1345.62 888.808C1348.65 888.468 1425.15 977.156 1448.07 1007.58C1466.34 1031.83 1475.05 1051.49 1475.09 1068.57C1475.13 1079.73 1456.73 1106.27 1432.93 1129.41C1421.47 1140.56 1412.09 1151.65 1412.09 1154.05C1412.09 1156.46 1420.17 1163.61 1430.03 1169.94C1439.9 1176.28 1449.91 1185.7 1452.28 1190.89C1454.9 1196.64 1456.58 1220.98 1456.58 1253.13C1456.58 1309.26 1461.84 1339.77 1475.25 1361.48C1479.26 1367.95 1482.53 1374.3 1482.53 1375.59C1482.53 1380.3 1411.88 1377.95 1399.63 1372.83C1378.71 1364.09 1367.67 1328.62 1367.63 1269.99L1367.6 1241.75L1344.43 1219.03C1331.69 1206.54 1319.01 1196.31 1316.25 1196.3C1312.19 1196.28 1311.5 1208.03 1312.56 1258.37C1313.85 1318.72 1314.21 1321.15 1325.29 1344.57C1331.56 1357.82 1336.97 1369.97 1337.32 1371.56C1337.66 1373.15 1307.91 1374.82 1271.21 1375.26C1234.5 1375.71 1204.48 1375.84 1204.48 1375.53C1204.48 1375.23 1209.48 1364.9 1215.6 1352.57L1226.72 1330.15L1226.75 1171.46L1226.78 1012.76L1209.83 997.931L1192.88 983.101L1268.19 936.077C1309.61 910.215 1344.46 888.941 1345.62 888.808ZM1182.23 1038.36L1168.33 1025.07C1149.77 1007.33 1141.41 1003.49 1121.31 1003.49H1104.38V1160.6C1104.38 1332.6 1103.88 1328.2 1127.21 1362.09L1138.1 1377.93H1063.78C1022.91 1377.93 989.465 1377.22 989.452 1376.35C989.452 1375.47 995.71 1364.26 1003.35 1351.43L1017.26 1328.1L1018.33 1165.79L1019.4 1003.49H1004.67C982.865 1003.49 970.659 1009.22 955.17 1026.72L941.276 1042.42L941.268 978.467L941.257 914.515H1182.23V1038.36ZM2016.39 1038.36L2002.49 1024.85C1986.25 1009.08 1973.33 1003.49 1953.12 1003.49H1938.54V1158.73C1938.54 1328.54 1938.58 1328.99 1960.81 1361.29L1972.26 1377.93H1897.93C1857.06 1377.93 1823.62 1377.22 1823.61 1376.35C1823.61 1375.47 1829.87 1364.26 1837.51 1351.43L1851.41 1328.09L1853.49 1003.49H1838.43C1817.37 1003.49 1800.37 1011.55 1788.44 1027.2C1782.83 1034.55 1776.77 1040.56 1774.97 1040.56C1773.18 1040.56 1771.7 1012.2 1771.7 977.54V914.515H2016.39V1038.36ZM2184.17 897.357C2187.75 901.699 2204.02 924.896 2220.32 948.908C2252.17 995.843 2253.36 999.862 2247.64 1041.61C2245.49 1057.26 2244.73 1058.24 2237.44 1054.8C2233.11 1052.76 2216.47 1033.52 2200.46 1012.05L2171.36 973.01L2155.05 989.021L2138.73 1005.03V1103.59H2209.17V1188.64L2195.68 1179.48C2185.13 1172.32 2177.45 1170.32 2160.46 1170.32H2138.73V1307.49L2171.17 1307.46C2204.18 1307.42 2224.5 1301.05 2249.03 1283.05L2257.37 1276.93V1377.93H2027.42L2040.44 1352.08L2053.46 1326.22V1016.78L2040.28 1003.28L2027.11 989.789L2102.38 939.628L2177.66 889.472L2184.17 897.357ZM1628.13 988.662C1626.06 988.663 1615.81 995.48 1605.35 1003.81C1594.88 1012.15 1585.4 1022.62 1584.28 1027.1C1583.15 1031.57 1582.74 1089.18 1583.36 1155.13L1584.48 1275.03L1604.87 1293.07C1616.09 1303 1626.36 1311.14 1627.7 1311.16C1629.05 1311.18 1639.47 1303.6 1650.87 1294.31L1671.61 1277.43V1022.6L1651.74 1005.63C1640.82 996.299 1630.19 988.662 1628.13 988.662ZM1319.27 992.369C1317.5 992.369 1315.55 1020.31 1314.95 1054.47C1314.34 1088.62 1314.44 1117.39 1315.15 1118.42C1316.91 1120.9 1371.31 1062.66 1371.31 1058.3C1371.31 1053.4 1323.14 992.371 1319.27 992.369Z" fill="url(#text-shimmer)"/>
</svg>
